<?xml version="1.0" standalone="no"?><!DOCTYPE svg PUBLIC "-//W3C//DTD SVG 1.1//EN" "http://www.w3.org/Graphics/SVG/1.1/DTD/svg11.dtd"><svg t="1540545273998" class="icon" style="" viewBox="0 0 1024 1024" version="1.1" xmlns="http://www.w3.org/2000/svg" p-id="4509" xmlns:xlink="http://www.w3.org/1999/xlink" width="32" height="32"><defs><style type="text/css"></style></defs><path d="M836.855172 0v217.158621h132.413794z" fill="#5E89C1" p-id="4510"></path><path d="M969.268966 296.606897V247.172414h-167.724138V0H54.731034v1024H971.034483l-1.765517-727.393103z m-361.931035-72.386207c-3.531034-5.296552-10.593103-8.827586-19.42069-12.358621-5.296552-1.765517-17.655172-5.296552-38.841379-10.593103-19.42069-5.296552-33.544828-8.827586-42.372414-14.124138-10.593103-5.296552-17.655172-12.358621-22.951724-21.186207-3.531034-5.296552-7.062069-15.889655-7.062069-24.717242 0-10.593103 3.531034-21.186207 8.827586-31.77931 7.062069-8.827586 15.889655-17.655172 28.248276-22.951724 12.358621-5.296552 24.717241-7.062069 40.606897-7.062069 15.889655 0 30.013793 1.765517 42.372414 7.062069 12.358621 5.296552 22.951724 12.358621 28.248275 22.951724 7.062069 10.593103 10.593103 21.186207 10.593104 35.310345v1.765517l-30.013793 1.765517v-1.765517c-1.765517-12.358621-7.062069-22.951724-14.124138-30.013793-8.827586-7.062069-21.186207-10.593103-37.075862-10.593104-15.889655 0-28.248276 3.531034-37.075862 8.827587-5.296552 8.827586-8.827586 15.889655-8.827586 24.717241 0 7.062069 1.765517 12.358621 7.062068 17.655172 5.296552 5.296552 19.42069 10.593103 42.372414 14.124138 22.951724 5.296552 38.841379 10.593103 47.668966 14.124138 12.358621 5.296552 22.951724 14.124138 28.248276 22.951724 5.296552 8.827586 8.827586 19.42069 8.827586 31.779311s-3.531034 22.951724-10.593104 33.544827c-7.062069 10.593103-15.889655 17.655172-28.248275 24.717242-12.358621 5.296552-26.482759 8.827586-42.372414 8.827586-19.42069 0-37.075862-3.531034-49.434483-8.827586-14.124138-5.296552-24.717241-14.124138-31.77931-26.482759-7.062069-12.358621-12.358621-24.717241-12.358621-38.841379v-1.765517l30.013793-1.765518v1.765518c1.765517 10.593103 3.531034 19.42069 8.827586 26.482758 5.296552 7.062069 10.593103 12.358621 21.186207 15.889655 8.827586 3.531034 21.186207 7.062069 31.779311 7.062069 10.593103 0 19.42069-1.765517 28.248275-5.296551 7.062069-3.531034 14.124138-7.062069 17.655173-12.358621 3.531034-5.296552 5.296552-10.593103 5.296552-17.655172 1.765517-10.593103 0-15.889655-3.531035-21.186207z m-305.434483 14.124138l28.248276-3.531035v1.765517c0 15.889655 3.531034 26.482759 8.827586 31.779311 5.296552 5.296552 12.358621 8.827586 21.186207 8.827586 7.062069 0 12.358621-1.765517 17.655173-5.296552 5.296552-3.531034 8.827586-7.062069 10.593103-12.358621 1.765517-5.296552 3.531034-14.124138 3.531035-26.482758V82.97931H423.724138v148.303449c0 17.655172-1.765517 31.77931-7.062069 42.372413-5.296552 10.593103-12.358621 17.655172-21.186207 22.951725-8.827586 5.296552-21.186207 8.827586-33.544828 8.827586-19.42069 0-33.544828-5.296552-44.137931-17.655173-10.593103-10.593103-15.889655-26.482759-15.889655-49.434482z m655.006897 766.234482H77.682759V388.413793h879.227586v616.165517z" fill="#5E89C1" p-id="4511"></path><path d="M446.675862 768l-88.275862-88.275862 88.275862-88.275862h-68.855172l-84.744828 86.510345 84.744828 90.041379zM577.324138 768h68.855172l84.744828-90.041379-84.744828-86.510345h-68.855172l88.275862 88.275862z" fill="#5E89C1" p-id="4512"></path></svg>