<?xml version="1.0" standalone="no"?><!DOCTYPE svg PUBLIC "-//W3C//DTD SVG 1.1//EN" "http://www.w3.org/Graphics/SVG/1.1/DTD/svg11.dtd"><svg t="1540544484680" class="icon" style="" viewBox="0 0 1024 1024" version="1.1" xmlns="http://www.w3.org/2000/svg" p-id="3719" xmlns:xlink="http://www.w3.org/1999/xlink" width="32" height="32"><defs><style type="text/css"></style></defs><path d="M646.4 646.4l-7.1-106.1-28.3 28.3-56.6-56.6-127.3-127.3c-70.3-70.3-184.3-70.3-254.6 0s-70.3 184.3 0 254.6c70.3 70.3 184.3 70.3 254.6 0l84.9-84.9 56.6 56.6-28.3 28.3 106.1 7.1z m-261.7-49.5C362 619.6 331.9 632 299.8 632s-62.2-12.5-84.9-35.1-35.1-52.8-35.1-84.9c0-32.1 12.5-62.2 35.1-84.9s52.8-35.1 84.9-35.1c32.1 0 62.2 12.5 84.9 35.1l84.9 84.9-84.9 84.9z" fill="#FFA326" p-id="3720"></path><path d="M404.5 407.3c-28-28-65.1-43.3-104.7-43.3s-76.7 15.4-104.7 43.3c-28 28-43.3 65.1-43.3 104.7s15.4 76.7 43.3 104.7c28 28 65.1 43.3 104.7 43.3s76.7-15.4 104.7-43.3l2.8 2.8c-28.7 28.7-66.9 44.5-107.5 44.5-40.6 0-78.8-15.8-107.5-44.5-59.3-59.3-59.3-155.7 0-215C221 375.8 259.2 360 299.8 360s78.8 15.8 107.5 44.5L611 608.2l4.5-4.5 0.8 12.6-12.6-0.8 4.5-4.5-203.7-203.7z" fill="#EBF1F7" p-id="3721"></path><path d="M512 554.4L469.6 512 413 568.6l-28.3-28.3-7.1 106.1 106.1-7.1-28.3-28.3zM851.4 384.7c-70.3-70.3-184.3-70.3-254.6 0L512 469.6l42.4 42.4 84.9-84.9c22.7-22.7 52.8-35.1 84.9-35.1s62.2 12.5 84.9 35.1c22.7 22.7 35.1 52.8 35.1 84.9s-12.5 62.2-35.1 84.9c-22.7 22.7-52.8 35.1-84.9 35.1-30.2 0-58.7-11.1-80.8-31.3l3 45.7-45.3-3c70.6 66.2 181.4 64.9 250.4-4.1 70.2-70.3 70.2-184.3-0.1-254.6z" fill="#003DF0" p-id="3722"></path><path d="M492.2 534.6l-2.8-2.8-76.4 76.4-4.4-4.5-0.9 12.6 12.6-0.9-4.5-4.4zM831.6 404.5c-28.7-28.7-66.9-44.5-107.5-44.5s-78.8 15.8-107.5 44.5l-84.9 84.9 2.8 2.8 84.9-84.9c28-28 65.1-43.3 104.7-43.3 39.5 0 76.7 15.4 104.7 43.3 28 28 43.3 65.1 43.3 104.7 0 39.5-15.4 76.7-43.3 104.7-28 28-65.1 43.3-104.7 43.3-17 0-33.7-2.9-49.4-8.4 0 0-16.3-5.5-28.9-13.3l0.4 5.8c11.2 5.5 28.9 11.9 28.9 11.9 15.6 5.3 32.2 8.1 49.1 8.1 40.6 0 78.8-15.8 107.5-44.5 59.2-59.4 59.2-155.8-0.1-215.1z" fill="#EBF1F7" p-id="3723"></path></svg>